<!DOCTYPE svg PUBLIC "-//W3C//DTD SVG 1.1//EN" "http://www.w3.org/Graphics/SVG/1.1/DTD/svg11.dtd">
<!-- Uploaded to: SVG Repo, www.svgrepo.com, Transformed by: SVG Repo Mixer Tools -->
<svg fill="#ffffff" height="800px" width="800px" version="1.1" id="Layer_1" xmlns="http://www.w3.org/2000/svg" xmlns:xlink="http://www.w3.org/1999/xlink" viewBox="0 0 512 512" xml:space="preserve" transform="matrix(1, 0, 0, 1, 0, 0)">
<g id="SVGRepo_bgCarrier" stroke-width="0"/>
<g id="SVGRepo_tracerCarrier" stroke-linecap="round" stroke-linejoin="round"/>
<g id="SVGRepo_iconCarrier"> <g> <g> <path d="M501.221,410.668L270.539,8.423C267.551,3.212,262.006,0,256,0c-6.006,0-11.551,3.212-14.539,8.423L10.779,410.668 c-2.504,4.365-2.913,9.626-1.115,14.327c1.799,4.702,5.615,8.345,10.395,9.924l230.682,76.234 c1.707,0.564,3.484,0.847,5.259,0.847c1.776,0,3.552-0.283,5.259-0.847l230.682-76.234c4.779-1.579,8.595-5.223,10.395-9.924 C504.134,420.294,503.725,415.033,501.221,410.668z M239.24,472.048L78.731,419.005l160.509-53.044V472.048z M239.24,330.659 L61.647,389.348L239.24,79.675V330.659z M272.759,472.049V365.962h0.001l160.508,53.044L272.759,472.049z M272.76,330.659V79.675 l177.592,309.673L272.76,330.659z"/> </g> </g> </g>
</svg>